<svg id="eb9SLqXRc7x1" xmlns="http://www.w3.org/2000/svg" xmlns:xlink="http://www.w3.org/1999/xlink" viewBox="0 0 500 500" shape-rendering="geometricPrecision" text-rendering="geometricPrecision"><rect width="358.016914" height="76.535582" rx="0" ry="0" transform="matrix(.368452-.907914 1.401393 0.568717 121.938738 329.791252)" fill="#fff" stroke="#fff"/><rect width="76.454252" height="45.686077" rx="0" ry="0" transform="matrix(.948479 0.396035 0.29787-.713381 159.871787 282.103599)" fill="#505f98" fill-opacity="0.9" fill-rule="evenodd" stroke="#fff"/><rect width="76.454252" height="45.686077" rx="0" ry="0" transform="matrix(.948479 0.396035 0.29787-.713381 146.263254 314.749617)" fill="#505f98" fill-rule="evenodd" stroke="#fff"/><rect width="76.454252" height="45.686077" rx="0" ry="0" transform="matrix(.948479 0.396035 0.29787-.713381 173.480319 249.512031)" fill="#505f98" fill-opacity="0.8" fill-rule="evenodd" stroke="#fff"/><rect width="76.454252" height="45.686077" rx="0" ry="0" transform="matrix(.948479 0.396035 0.29787-.713381 187.088851 216.920468)" fill="#505f98" fill-opacity="0.7" fill-rule="evenodd" stroke="#fff"/><rect width="76.454252" height="45.686077" rx="0" ry="0" transform="matrix(.948479 0.396035 0.29787-.713381 200.697383 184.328905)" fill="#505f98" fill-opacity="0.6" fill-rule="evenodd" stroke="#fff"/><rect width="76.454252" height="45.686077" rx="0" ry="0" transform="matrix(.948479 0.396035 0.29787-.713381 214.305915 151.737342)" fill="#505f98" fill-opacity="0.5" fill-rule="evenodd" stroke="#fff"/><rect width="76.454252" height="45.686077" rx="0" ry="0" transform="matrix(.948479 0.396035 0.29787-.713381 227.914447 119.145779)" fill="#505f98" fill-opacity="0.4" fill-rule="evenodd" stroke="#fff"/><rect width="76.454252" height="45.686077" rx="0" ry="0" transform="matrix(.948479 0.396035 0.29787-.713381 241.522979 85.300138)" fill="#505f98" fill-opacity="0.2" fill-rule="evenodd" stroke="#fff"/><rect width="76.454252" height="45.686077" rx="0" ry="0" transform="matrix(.948479 0.396035 0.29787-.713381 255.131511 53.865063)" fill="#505f98" fill-opacity="0.1" fill-rule="evenodd" stroke="#fff"/></svg>
